<svg width="17" height="17" viewBox="0 0 17 17" fill="none" xmlns="http://www.w3.org/2000/svg">
<path d="M14.7288 11.6827C14.3602 11.0478 13.8124 9.25155 13.8124 6.90543C13.8124 5.49648 13.2527 4.14523 12.2564 3.14895C11.2601 2.15267 9.90887 1.59297 8.49992 1.59297C7.09096 1.59297 5.73972 2.15267 4.74344 3.14895C3.74716 4.14523 3.18745 5.49648 3.18745 6.90543C3.18745 9.25222 2.63894 11.0478 2.27039 11.6827C2.17627 11.8441 2.12637 12.0274 2.12573 12.2143C2.12509 12.4011 2.17373 12.5848 2.26673 12.7468C2.35974 12.9089 2.49383 13.0435 2.65548 13.1372C2.81713 13.2309 3.00062 13.2803 3.18745 13.2804H5.89747C6.02004 13.8801 6.34599 14.4192 6.8202 14.8063C7.29441 15.1934 7.88777 15.4048 8.49992 15.4048C9.11206 15.4048 9.70542 15.1934 10.1796 14.8063C10.6538 14.4192 10.9798 13.8801 11.1024 13.2804H13.8124C13.9992 13.2801 14.1826 13.2307 14.3441 13.1369C14.5057 13.0432 14.6397 12.9085 14.7326 12.7465C14.8255 12.5845 14.8741 12.4009 14.8734 12.2141C14.8728 12.0273 14.8229 11.844 14.7288 11.6827ZM8.49992 14.3429C8.17042 14.3428 7.84906 14.2406 7.58006 14.0503C7.31106 13.86 7.10765 13.591 6.99782 13.2804H10.002C9.89219 13.591 9.68877 13.86 9.41977 14.0503C9.15077 14.2406 8.82941 14.3428 8.49992 14.3429ZM3.18745 12.2179C3.69878 11.3387 4.24994 9.30136 4.24994 6.90543C4.24994 5.77827 4.69771 4.69727 5.49473 3.90025C6.29176 3.10322 7.37275 2.65546 8.49992 2.65546C9.62708 2.65546 10.7081 3.10322 11.5051 3.90025C12.3021 4.69727 12.7499 5.77827 12.7499 6.90543C12.7499 9.29936 13.2997 11.3367 13.8124 12.2179H3.18745Z" fill="#8C8C8C"/>
</svg>
