<svg width="17" height="17" viewBox="0 0 17 17" fill="none" xmlns="http://www.w3.org/2000/svg">
<path d="M8.49984 5.31104C7.86941 5.31104 7.25314 5.49798 6.72897 5.84823C6.20479 6.19847 5.79624 6.69629 5.55499 7.27873C5.31374 7.86116 5.25061 8.50206 5.3736 9.12037C5.49659 9.73868 5.80017 10.3066 6.24595 10.7524C6.69172 11.1982 7.25968 11.5018 7.87799 11.6248C8.4963 11.7477 9.1372 11.6846 9.71963 11.4434C10.3021 11.2021 10.7999 10.7936 11.1501 10.2694C11.5004 9.74521 11.6873 9.12895 11.6873 8.49852C11.6864 7.65342 11.3503 6.84318 10.7528 6.2456C10.1552 5.64803 9.34494 5.31192 8.49984 5.31104ZM8.49984 10.6235C8.07955 10.6235 7.66871 10.4989 7.31926 10.2654C6.9698 10.0319 6.69744 9.70001 6.5366 9.31172C6.37577 8.92343 6.33369 8.49616 6.41568 8.08396C6.49767 7.67175 6.70006 7.29311 6.99724 6.99593C7.29443 6.69874 7.67306 6.49636 8.08527 6.41437C8.49748 6.33237 8.92474 6.37445 9.31303 6.53529C9.70132 6.69613 10.0332 6.96849 10.2667 7.31794C10.5002 7.66739 10.6248 8.07824 10.6248 8.49852C10.6248 9.0621 10.4009 9.6026 10.0024 10.0011C9.60392 10.3996 9.06342 10.6235 8.49984 10.6235ZM15.8005 7.11794C15.7857 7.04313 15.755 6.97239 15.7104 6.91051C15.6658 6.84864 15.6084 6.79708 15.5422 6.75935L13.5613 5.63045L13.5533 3.39789C13.5531 3.321 13.5362 3.24508 13.5037 3.17537C13.4713 3.10567 13.4241 3.04383 13.3654 2.99414C12.6468 2.38633 11.8194 1.92054 10.927 1.62153C10.8567 1.59775 10.7822 1.58894 10.7083 1.59569C10.6344 1.60244 10.5628 1.62459 10.498 1.66071L8.49984 2.77766L6.49969 1.65872C6.43485 1.62239 6.3631 1.60008 6.2891 1.59321C6.21509 1.58635 6.14046 1.59509 6.07005 1.61888C5.17831 1.92007 4.35179 2.38763 3.63428 2.9968C3.57569 3.04642 3.52855 3.10814 3.49611 3.17773C3.46366 3.24731 3.44669 3.32311 3.44635 3.39988L3.43639 5.63444L1.45551 6.76334C1.38923 6.80107 1.33186 6.85262 1.28729 6.9145C1.24271 6.97637 1.21198 7.04712 1.19719 7.12193C1.0159 8.03294 1.0159 8.97074 1.19719 9.88176C1.21198 9.95656 1.24271 10.0273 1.28729 10.0892C1.33186 10.1511 1.38923 10.2026 1.45551 10.2403L3.43639 11.3692L3.44436 13.6018C3.4446 13.6787 3.46153 13.7546 3.49398 13.8243C3.52642 13.894 3.57361 13.9559 3.63229 14.0056C4.35085 14.6134 5.17832 15.0792 6.07071 15.3782C6.14099 15.402 6.21547 15.4108 6.28935 15.404C6.36324 15.3973 6.43489 15.3751 6.49969 15.339L8.49984 14.2194L10.5 15.3383C10.5791 15.3824 10.6684 15.4053 10.759 15.4047C10.817 15.4047 10.8746 15.3953 10.9296 15.3768C11.8213 15.076 12.6478 14.6089 13.3654 14.0002C13.424 13.9506 13.4711 13.8889 13.5036 13.8193C13.536 13.7497 13.553 13.6739 13.5533 13.5972L13.5633 11.3626L15.5442 10.2337C15.6104 10.196 15.6678 10.1444 15.7124 10.0825C15.757 10.0207 15.7877 9.94992 15.8025 9.87511C15.9828 8.96483 15.9821 8.02796 15.8005 7.11794ZM14.8044 9.43617L12.9072 10.5153C12.8241 10.5625 12.7552 10.6314 12.708 10.7145C12.6695 10.7809 12.6289 10.8513 12.5878 10.9177C12.5351 11.0014 12.507 11.0983 12.5068 11.1973L12.4968 13.3388C11.9869 13.7393 11.4187 14.0595 10.8121 14.2884L8.89827 13.222C8.81882 13.178 8.72943 13.1551 8.63862 13.1556H8.62601C8.54566 13.1556 8.46464 13.1556 8.38429 13.1556C8.28925 13.1532 8.1953 13.1761 8.11203 13.222L6.19688 14.2911C5.58894 14.0639 5.01926 13.7453 4.50752 13.3461L4.50021 11.2079C4.49989 11.1087 4.47182 11.0117 4.4192 10.9276C4.37803 10.8612 4.33752 10.7948 4.29967 10.7244C4.25273 10.64 4.18391 10.5698 4.10045 10.5212L2.20124 9.43949C2.10296 8.81781 2.10296 8.18455 2.20124 7.56286L4.09514 6.48178C4.17826 6.43451 4.24709 6.36568 4.29436 6.28256C4.33287 6.21615 4.37338 6.14576 4.41455 6.07936C4.46725 5.99562 4.49533 5.89873 4.49556 5.79979L4.50553 3.6582C5.01547 3.25774 5.5836 2.93751 6.19024 2.7086L8.1014 3.77508C8.18458 3.82118 8.2786 3.84411 8.37366 3.84148C8.45402 3.84148 8.53503 3.84148 8.61538 3.84148C8.71042 3.84386 8.80438 3.82094 8.88764 3.77508L10.8028 2.70594C11.4107 2.9331 11.9804 3.25176 12.4922 3.6509L12.4995 5.78916C12.4998 5.8883 12.5278 5.98538 12.5805 6.0694C12.6216 6.1358 12.6622 6.20221 12.7 6.2726C12.7469 6.35701 12.8158 6.42721 12.8992 6.4758L14.7984 7.55755C14.898 8.17971 14.8991 8.81366 14.8017 9.43617H14.8044Z" fill="#8C8C8C"/>
</svg>
