<svg width="750" height="1637" viewBox="0 0 750 1637" fill="none" xmlns="http://www.w3.org/2000/svg">
<g filter="url(#filter0_f_0_4725)">
<path d="M609.985 711.894C610.37 816.618 603.314 920.637 589.166 1018.8C574.229 1122.1 548.683 1212.97 515.261 1281.69C475.493 1363.94 429.991 1425.8 381.206 1463.94C354.172 1485.89 325.988 1496.98 297.646 1496.83C276.582 1497.86 255.52 1494.31 234.686 1486.23C214.963 1477.87 195.758 1462.81 177.565 1441.46C166.326 1429.29 156.427 1410.15 148.751 1385.73C144.293 1371.97 141.399 1355.29 140.394 1337.55C139.39 1319.8 140.314 1301.69 143.061 1285.22C145.073 1272.08 147.682 1259.61 150.837 1248.06C155.806 1229.56 161.477 1212.39 167.766 1196.79C174.969 1178.21 182.606 1160.93 190.242 1143.47C215.814 1085.13 242.322 1029.58 268.902 974.219C290.642 928.767 311.419 880.33 331.141 829.121C355.511 765.952 376.293 694.211 392.873 616.029C405.983 554.349 417.508 490.627 428.457 426.346C436.944 375.606 446.419 326.001 456.842 277.72C463.478 247.542 471.273 219.16 480.109 193.002C486.389 173.438 494.29 157.758 503.232 147.114C513.533 135.41 519.007 137.453 526.643 158.447C537.392 187.705 547.151 219.278 555.815 252.823C556.726 255.802 557.454 259.123 557.975 262.67C561.23 285.467 565.537 307.173 570.799 327.322C589.617 419.529 601.957 519.601 607.249 622.903C609.121 658.202 609.481 692.944 609.985 711.894Z" fill="url(#paint0_linear_0_4725)"/>
<path d="M510.399 141.435C512.38 140.363 514.1 140.219 515.727 140.973C517.393 141.744 519.05 143.496 520.781 146.428C522.506 149.349 524.268 153.379 526.173 158.617L526.174 158.619C536.917 187.86 546.67 219.418 555.331 252.948L555.337 252.97C556.239 255.92 556.961 259.215 557.479 262.74V262.741C560.735 285.545 565.043 307.26 570.308 327.422H570.309C589.121 419.602 601.459 519.649 606.749 622.929V622.93C608.504 656.014 608.93 688.603 609.392 708.171L609.485 711.907C609.87 816.605 602.814 920.595 588.671 1018.73C573.738 1121.99 548.205 1212.81 514.812 1281.47L514.811 1281.47C475.062 1363.68 429.601 1425.47 380.898 1463.55L380.891 1463.55C353.925 1485.45 325.85 1496.48 297.648 1496.33H297.621C277.287 1497.32 256.951 1494.04 236.814 1486.51L234.867 1485.77C215.239 1477.44 196.098 1462.44 177.945 1441.14L177.939 1441.13L177.933 1441.12L177.41 1440.55C166.455 1428.43 156.773 1409.58 149.229 1385.58L149.228 1385.57L148.815 1384.28C144.606 1370.82 141.865 1354.67 140.894 1337.52C139.922 1320.36 140.757 1302.86 143.302 1286.85L143.554 1285.3L143.555 1285.29C145.565 1272.17 148.17 1259.72 151.319 1248.19L151.32 1248.19C156.284 1229.71 161.949 1212.55 168.229 1196.97L168.232 1196.97C175.431 1178.4 183.062 1161.13 190.699 1143.67C213.071 1092.63 236.161 1043.73 259.391 995.21L269.354 974.435C290.42 930.391 310.581 883.546 329.755 834.095L331.607 829.301C355.989 766.103 376.778 694.336 393.362 616.133C406.475 554.443 418.001 490.713 428.95 426.43V426.429C437.435 375.696 446.91 326.098 457.331 277.825L457.33 277.824C463.963 247.664 471.754 219.3 480.583 193.162L480.585 193.154C486.852 173.631 494.726 158.02 503.607 147.444C506.172 144.531 508.398 142.518 510.399 141.435Z" stroke="black"/>
</g>
<defs>
<filter id="filter0_f_0_4725" x="0" y="0" width="750" height="1637" filterUnits="userSpaceOnUse" color-interpolation-filters="sRGB">
<feFlood flood-opacity="0" result="BackgroundImageFix"/>
<feBlend mode="normal" in="SourceGraphic" in2="BackgroundImageFix" result="shape"/>
<feGaussianBlur stdDeviation="70" result="effect1_foregroundBlur_0_4725"/>
</filter>
<linearGradient id="paint0_linear_0_4725" x1="357.944" y1="1422.19" x2="582.478" y2="738.243" gradientUnits="userSpaceOnUse">
<stop stop-color="#FD8431" stop-opacity="0.4"/>
<stop offset="1" stop-color="#F6F2F7"/>
</linearGradient>
</defs>
</svg>
