<svg width="1273" height="1268" viewBox="0 0 1273 1268" fill="none" xmlns="http://www.w3.org/2000/svg">
<g filter="url(#filter0_f_0_4726)">
<path d="M144.564 617.164C155.361 698.542 180.65 776.826 219.175 848.142C259.813 923.162 319.85 984.915 392.865 1026.79C479.795 1076.99 575.705 1109.4 675.423 1122.29C730.773 1130.06 787.175 1129.02 842.647 1119.19C884.001 1112.78 924.846 1102.82 964.743 1089.42C1002.44 1076.18 1038.38 1057.93 1071.64 1035.13C1092.3 1021.85 1109.57 1003.6 1121.9 982.027C1129.11 969.827 1132.94 955.898 1132.95 941.789C1132.96 927.68 1129.15 913.943 1121.96 902.104C1116.57 892.602 1110.09 883.818 1102.64 875.94C1090.87 863.289 1077.87 851.905 1063.84 841.955C1047.68 830.008 1030.83 819.218 1013.95 808.284C957.452 771.781 899.427 737.76 841.28 703.909C793.704 676.089 747.684 645.625 703.423 612.648C648.743 571.983 600.142 523.441 559.059 468.462C526.588 425.099 496.996 379.608 468.469 333.486C446.258 297.026 422.235 261.786 396.504 227.898C380.183 206.758 361.792 187.407 341.607 170.138C327.154 157.11 309.955 147.65 291.275 142.454C269.817 136.9 259.324 140.359 246.69 159.26C228.872 185.639 213.249 213.475 199.985 242.466C198.53 245.089 197.472 247.914 196.843 250.845C192.985 269.646 186.947 287.96 178.867 305.393C152.195 383.371 139.071 465.232 140.106 547.187C140.333 575.213 143.461 602.29 144.564 617.164Z" fill="url(#paint0_linear_0_4726)" fill-opacity="0.5"/>
<path d="M291.138 142.941C280.437 140.171 272.57 139.679 265.831 142.158C259.098 144.636 253.394 150.117 247.1 159.533L247.098 159.535C229.297 185.89 213.687 213.7 200.436 242.665L200.427 242.683L200.417 242.702C198.988 245.277 197.949 248.053 197.331 250.932L197.331 250.933C193.467 269.762 187.42 288.104 179.33 305.566C152.682 383.481 139.57 465.277 140.604 547.166L140.604 547.168C140.83 575.163 143.953 602.192 145.059 617.097C155.849 698.41 181.119 776.631 219.614 847.89C260.21 922.833 320.183 984.521 393.12 1026.35L393.122 1026.35C479.997 1076.52 575.847 1108.91 675.501 1121.79L675.507 1121.79C730.805 1129.56 787.156 1128.51 842.576 1118.7L842.576 1118.7L842.587 1118.7C883.909 1112.29 924.723 1102.34 964.591 1088.95C1002.24 1075.72 1038.14 1057.49 1071.37 1034.72L1071.38 1034.71C1091.97 1021.47 1109.18 1003.29 1121.47 981.786L1121.48 981.779L1122.14 980.638C1128.88 968.794 1132.44 955.384 1132.45 941.804C1132.46 927.786 1128.68 914.138 1121.53 902.376L1121.53 902.364C1116.15 892.895 1109.69 884.143 1102.27 876.293L1102.27 876.29C1090.52 863.663 1077.55 852.3 1063.54 842.37L1063.54 842.37L1063.53 842.364C1047.4 830.428 1030.55 819.646 1013.68 808.709L1013.67 808.71C957.185 772.214 899.169 738.198 841.022 704.346L841.021 704.346C794.917 677.387 750.273 647.945 707.276 616.14L703.12 613.056C648.403 572.364 599.769 523.789 558.658 468.774C526.175 425.394 496.575 379.889 468.045 333.762L468.043 333.759C445.841 297.315 421.828 262.089 396.108 228.214C380.317 207.76 362.584 188.983 343.163 172.149L341.279 170.526L341.27 170.517C326.873 157.541 309.743 148.118 291.138 142.941Z" stroke="black"/>
</g>
<defs>
<filter id="filter0_f_0_4726" x="7.63209e-06" y="0" width="1273" height="1267.48" filterUnits="userSpaceOnUse" color-interpolation-filters="sRGB">
<feFlood flood-opacity="0" result="BackgroundImageFix"/>
<feBlend mode="normal" in="SourceGraphic" in2="BackgroundImageFix" result="shape"/>
<feGaussianBlur stdDeviation="70" result="effect1_foregroundBlur_0_4726"/>
</filter>
<linearGradient id="paint0_linear_0_4726" x1="517.125" y1="762.521" x2="337.207" y2="306.534" gradientUnits="userSpaceOnUse">
<stop stop-color="#1E1F4F"/>
<stop offset="1" stop-color="#F6F2F7"/>
</linearGradient>
</defs>
</svg>
