<svg width="1369" height="9135" viewBox="0 0 1369 9135" fill="none" xmlns="http://www.w3.org/2000/svg">
<g filter="url(#filter0_f_0_4731)">
<path d="M1228.02 3871.85C1228.91 4555.22 1212.58 5233.99 1179.82 5874.57C1145.24 6548.59 1086.11 7141.55 1008.73 7589.99C916.67 8126.73 811.331 8530.42 698.394 8779.28C635.809 8922.5 570.564 8994.88 504.951 8993.86C456.188 9000.6 407.429 8977.48 359.199 8924.75C313.54 8870.17 269.079 8771.92 226.964 8632.58C200.944 8553.19 178.029 8428.25 160.26 8268.88C149.938 8179.1 143.239 8070.28 140.913 7954.5C138.587 7838.72 140.726 7720.52 147.085 7613.04C151.745 7527.31 157.784 7445.92 165.088 7370.57C176.591 7249.86 189.72 7137.77 204.279 7035.97C220.955 6914.74 238.633 6802 256.31 6688.04C315.509 6307.38 376.876 5944.9 438.41 5583.63C488.738 5287.04 536.836 4970.97 582.493 4636.81C638.91 4224.6 687.021 3756.46 725.403 3246.29C755.753 2843.81 782.434 2427.99 807.781 2008.53C827.427 1677.43 849.363 1353.73 873.492 1038.68C888.855 841.76 906.899 656.552 927.355 485.86C941.893 358.199 960.185 255.877 980.884 186.422C1004.73 110.047 1017.4 123.381 1035.08 260.372C1059.97 451.295 1082.56 657.324 1102.62 876.22C1104.72 895.655 1106.41 917.327 1107.62 940.476C1115.15 1089.24 1125.12 1230.88 1137.3 1362.36C1180.87 1964.05 1209.44 2617.06 1221.68 3291.15C1226.02 3521.49 1226.85 3748.19 1228.02 3871.85Z" fill="url(#paint0_linear_0_4731)"/>
</g>
<defs>
<filter id="filter0_f_0_4731" x="0" y="0" width="1368.05" height="9135" filterUnits="userSpaceOnUse" color-interpolation-filters="sRGB">
<feFlood flood-opacity="0" result="BackgroundImageFix"/>
<feBlend mode="normal" in="SourceGraphic" in2="BackgroundImageFix" result="shape"/>
<feGaussianBlur stdDeviation="70" result="effect1_foregroundBlur_0_4731"/>
</filter>
<linearGradient id="paint0_linear_0_4731" x1="714.879" y1="8520.18" x2="-855.072" y2="4997.43" gradientUnits="userSpaceOnUse">
<stop stop-color="#B1B3FC"/>
<stop offset="1" stop-color="#FD8431" stop-opacity="0.6"/>
</linearGradient>
</defs>
</svg>
