<svg width="29" height="27" viewBox="0 0 29 27" fill="none" xmlns="http://www.w3.org/2000/svg">
<path d="M11.3558 26.9925L7.96951 26.9988C6.27041 26.9941 4.54201 27.1473 3.47115 25.2058C2.51964 23.4797 1.74397 21.4383 0.827261 19.7094C-0.933162 16.389 0.423704 14.9316 2.03763 12.1133L4.43883 7.89028L6.47555 4.29259C6.88857 3.56311 7.28602 2.80513 7.75063 2.11667C8.062 1.655 8.43503 1.23662 8.86576 0.920409C9.3728 0.547902 9.9757 0.27109 10.5691 0.155963C11.6745 -0.0587814 17.6692 -0.059473 18.7575 0.202051C20.0317 0.508312 20.9771 1.28177 21.6737 2.51162C23.2119 5.22776 24.6732 8.18131 26.1525 10.9419L27.7316 13.8899C28.4127 15.1624 29.3331 16.6725 28.8788 18.2809C28.4179 19.9138 27.4013 21.5143 26.7267 23.0643C26.2899 24.0664 25.7313 25.0912 25.2495 26.0723C24.8747 26.795 24.331 27.1488 23.6048 26.919C22.8636 26.6842 22.2348 25.2011 21.8633 24.5009L14.0812 9.94165C13.4902 8.83779 11.4446 4.67087 10.8362 4.07969C10.5911 3.84156 10.241 3.72876 9.92258 3.76003C9.50742 3.80081 9.24489 4.08736 8.99519 4.43829C8.53607 5.08322 8.15694 5.84628 7.75491 6.54172L5.28319 10.8396L3.43879 14.0212C2.92717 14.899 1.8038 16.3702 2.30596 17.4219C3.27364 19.4501 4.06488 20.8933 5.03684 22.9186C5.33844 23.5475 5.84609 24.5502 6.49631 24.4573C7.43316 24.3374 8.01743 22.7795 8.47991 21.9124L10.9144 17.3525C11.3488 16.54 11.763 15.7617 12.2337 14.9671C12.6413 14.278 13.8495 14.1634 14.3474 14.7558C15.1734 15.8094 15.6618 17.0084 16.3316 18.2093C16.8182 19.0815 17.7474 20.5913 17.1753 21.643C16.4265 23.0185 15.7418 24.5926 14.8269 25.8114C13.9429 26.9887 12.579 26.9824 11.3558 26.9925Z" fill="black"/>
</svg>
