<svg xmlns="http://www.w3.org/2000/svg" viewBox="0 0 100 100" width="100" height="100">
  <!-- Above Security Logo - Clean V Shape -->
  <path d="
    M 25,30
    C 24,28 22,27 20,27
    C 18,27 16,28 15,30
    L 5,50
    C 4,52 4,54 5,56
    L 20,85
    C 21,87 23,88 25,88
    L 35,88
    L 15,50
    C 14,48 14,46 15,44
    L 22,32
    C 23,31 24,30 25,30
    Z
    
    M 75,30
    C 76,30 77,31 78,32
    L 85,44
    C 86,46 86,48 85,50
    L 65,88
    L 75,88
    C 77,88 79,87 80,85
    L 95,56
    C 96,54 96,52 95,50
    L 85,30
    C 84,28 82,27 80,27
    C 78,27 76,28 75,30
    Z
    
    M 35,30
    C 37,30 39,31 40,33
    L 50,53
    L 60,33
    C 61,31 63,30 65,30
    C 67,30 69,31 70,33
    L 85,62
    C 86,64 86,66 85,68
    L 70,88
    L 60,88
    C 58,88 56,87 55,85
    L 50,75
    L 45,85
    C 44,87 42,88 40,88
    L 30,88
    L 15,68
    C 14,66 14,64 15,62
    L 30,33
    C 31,31 33,30 35,30
    Z
  " fill="#1a1a1a" fill-rule="evenodd"/>
</svg>