<svg width="32" height="32" viewBox="0 0 32 32" fill="none" xmlns="http://www.w3.org/2000/svg">
<path d="M12.532 29.9919L8.79499 29.9987C6.9199 29.9936 5.01247 30.1582 3.83069 28.0729C2.78063 26.2189 1.92461 24.0263 0.912949 22.1693C-1.02982 18.603 0.467591 17.0377 2.24869 14.0105L4.89861 9.47474L7.14629 5.61055C7.60209 4.82705 8.04071 4.01292 8.55345 3.27345C8.89707 2.77759 9.30874 2.32822 9.78408 1.98859C10.3436 1.58849 11.009 1.29117 11.6639 1.16752C12.8837 0.936864 19.4994 0.936122 20.7004 1.21702C22.1066 1.54597 23.1499 2.37671 23.9187 3.69767C25.6162 6.615 27.2289 9.78733 28.8614 12.7524L30.6041 15.9188C31.3557 17.2855 32.3672 18.9211 31.8659 20.6486C30.7623 23.2972 29.4535 25.6226 28.1413 28.0849C27.7276 28.8612 26.8735 29.9733 26.0721 29.7264C25.2541 29.4742 24.5379 28.0678 24.1279 27.3158L15.5397 11.6781C14.8875 10.4924 12.6301 6.01686 11.9587 5.38189C11.6881 5.12612 11.3017 5.00496 10.9504 5.03855C10.4922 5.08235 10.2025 5.39012 9.92692 5.76705C9.42024 6.45975 9.00184 7.27934 8.55816 8.02629L3.79498 16.0598C3.23036 17.0026 1.92888 18.6982 2.48306 19.8279C3.55097 22.0062 4.30732 23.5974 5.37995 25.7728C5.71279 26.4482 6.45164 27.3688 7.1692 27.269C8.20309 27.1401 8.84788 25.4669 9.35826 24.5355L12.0449 19.6379C12.5243 18.7652 12.9814 17.9293 13.5009 17.0758C13.9506 16.3356 15.284 16.2125 15.8335 16.8488C15.8335 16.8488 15.8335 16.8488 18.0232 20.5581C18.5602 21.4949 19.5857 23.1166 18.9544 24.2462C18.128 25.7235 17.3724 27.4143 16.3627 28.7233C15.3871 29.9879 13.8819 29.9811 12.532 29.9919Z" fill="black"/>
</svg>
