<svg xmlns="http://www.w3.org/2000/svg" width="300" height="239" fill="none"><path fill="#000" d="m138.2 162.976-11.093.02c-5.566-.015-11.228.473-14.736-5.711-3.117-5.498-5.658-12-8.661-17.507-5.7669-10.576-1.322-15.218 3.965-24.195l7.866-13.451 6.672-11.4593c1.353-2.3235 2.655-4.7378 4.177-6.9307 1.02-1.4705 2.242-2.8031 3.653-3.8103 1.661-1.1865 3.636-2.0682 5.58-2.4349 3.621-.684 23.259-.6862 26.824.1468 4.174.9755 7.271 3.4391 9.553 7.3564 5.039 8.6514 9.826 18.059 14.672 26.852l5.173 9.39c2.231 4.053 5.246 8.863 3.758 13.986-1.51 5.201-4.84 10.299-7.05 15.236-1.431 3.192-3.261 6.456-4.839 9.581-1.228 2.302-3.009 3.429-5.388 2.697-2.428-.748-4.488-5.472-5.705-7.702l-25.493-46.374c-1.936-3.516-8.637-16.7884-10.63-18.6714-.803-.7585-1.95-1.1178-2.993-1.0182-1.36.1299-2.22 1.0426-3.038 2.1604-1.504 2.0542-2.746 4.4847-4.063 6.6998l-8.097 13.6894-6.042 10.134c-1.676 2.796-5.356 7.482-3.711 10.832 3.17 6.46 5.762 11.057 8.946 17.508.988 2.003 2.651 5.197 4.781 4.901 3.069-.382 4.983-5.344 6.498-8.106l7.975-14.524c1.423-2.588 2.78-5.067 4.322-7.598 1.335-2.195 5.293-2.56 6.924-.673 2.706 3.356 4.306 7.175 6.5 11 1.594 2.778 4.638 7.587 2.764 10.937-2.453 4.381-4.696 9.395-7.693 13.277-2.896 3.75-7.364 3.73-11.371 3.762Z"/></svg>